<mxfile host="app.diagrams.net" modified="2024-06-02T14:05:24.043Z" agent="Mozilla/5.0 (Windows NT 10.0; Win64; x64) AppleWebKit/537.36 (KHTML, like Gecko) Chrome/125.0.0.0 Safari/537.36" etag="6ryKvbcWREST5SgOToY_" version="24.4.13" type="device">
  <diagram name="PaginÄƒ-1" id="JqGLmlje-UTVv07IEp6l">
    <mxGraphModel dx="1050" dy="522" grid="1" gridSize="10" guides="1" tooltips="1" connect="1" arrows="1" fold="1" page="1" pageScale="1" pageWidth="827" pageHeight="1169" background="#ffffff" math="0" shadow="0">
      <root>
        <mxCell id="0" />
        <mxCell id="1" parent="0" />
        <mxCell id="jkhjfqm331X6zdXHp7C5-4" value="Translate with googletrans" style="endArrow=classic;html=1;rounded=0;" parent="1" source="jkhjfqm331X6zdXHp7C5-18" target="jkhjfqm331X6zdXHp7C5-19" edge="1">
          <mxGeometry width="50" height="50" relative="1" as="geometry">
            <mxPoint x="130" y="230" as="sourcePoint" />
            <mxPoint x="180" y="180" as="targetPoint" />
          </mxGeometry>
        </mxCell>
        <mxCell id="jkhjfqm331X6zdXHp7C5-18" value="&#xa;&lt;span style=&quot;color: rgb(0, 0, 0); font-family: Helvetica; font-size: 12px; font-style: normal; font-variant-ligatures: normal; font-variant-caps: normal; font-weight: 400; letter-spacing: normal; orphans: 2; text-align: center; text-indent: 0px; text-transform: none; widows: 2; word-spacing: 0px; -webkit-text-stroke-width: 0px; white-space: normal; background-color: rgb(251, 251, 251); text-decoration-thickness: initial; text-decoration-style: initial; text-decoration-color: initial; display: inline !important; float: none;&quot;&gt;English Original Dataset&lt;/span&gt;&#xa;&#xa;" style="strokeWidth=2;html=1;shape=mxgraph.flowchart.database;whiteSpace=wrap;" parent="1" vertex="1">
          <mxGeometry x="70" y="120" width="120" height="100" as="geometry" />
        </mxCell>
        <mxCell id="jkhjfqm331X6zdXHp7C5-19" value="&#xa;&lt;span style=&quot;color: rgb(0, 0, 0); font-family: Helvetica; font-size: 12px; font-style: normal; font-variant-ligatures: normal; font-variant-caps: normal; font-weight: 400; letter-spacing: normal; orphans: 2; text-align: center; text-indent: 0px; text-transform: none; widows: 2; word-spacing: 0px; -webkit-text-stroke-width: 0px; white-space: normal; background-color: rgb(251, 251, 251); text-decoration-thickness: initial; text-decoration-style: initial; text-decoration-color: initial; display: inline !important; float: none;&quot;&gt;Romanian Translated Dataset&lt;/span&gt;&#xa;&#xa;" style="strokeWidth=2;html=1;shape=mxgraph.flowchart.database;whiteSpace=wrap;" parent="1" vertex="1">
          <mxGeometry x="70" y="300" width="120" height="100" as="geometry" />
        </mxCell>
        <mxCell id="jkhjfqm331X6zdXHp7C5-20" value="&lt;div&gt;&lt;br&gt;&lt;/div&gt;" style="rounded=1;whiteSpace=wrap;html=1;direction=south;" parent="1" vertex="1">
          <mxGeometry x="384" y="100" width="20" height="120" as="geometry" />
        </mxCell>
        <mxCell id="jkhjfqm331X6zdXHp7C5-21" value="" style="rounded=1;whiteSpace=wrap;html=1;direction=south;" parent="1" vertex="1">
          <mxGeometry x="404" y="80" width="20" height="120" as="geometry" />
        </mxCell>
        <mxCell id="jkhjfqm331X6zdXHp7C5-22" value="" style="rounded=1;whiteSpace=wrap;html=1;direction=south;" parent="1" vertex="1">
          <mxGeometry x="424" y="60" width="20" height="120" as="geometry" />
        </mxCell>
        <mxCell id="jkhjfqm331X6zdXHp7C5-23" value="" style="rounded=1;whiteSpace=wrap;html=1;direction=south;" parent="1" vertex="1">
          <mxGeometry x="384" y="310" width="20" height="120" as="geometry" />
        </mxCell>
        <mxCell id="jkhjfqm331X6zdXHp7C5-24" value="" style="rounded=1;whiteSpace=wrap;html=1;direction=south;" parent="1" vertex="1">
          <mxGeometry x="404" y="290" width="20" height="120" as="geometry" />
        </mxCell>
        <mxCell id="jkhjfqm331X6zdXHp7C5-25" value="" style="rounded=1;whiteSpace=wrap;html=1;direction=south;" parent="1" vertex="1">
          <mxGeometry x="424" y="270" width="20" height="120" as="geometry" />
        </mxCell>
        <mxCell id="jkhjfqm331X6zdXHp7C5-26" value="" style="endArrow=classic;html=1;rounded=0;entryX=0.65;entryY=0.95;entryDx=0;entryDy=0;entryPerimeter=0;" parent="1" target="jkhjfqm331X6zdXHp7C5-20" edge="1">
          <mxGeometry width="50" height="50" relative="1" as="geometry">
            <mxPoint x="200" y="180" as="sourcePoint" />
            <mxPoint x="620" y="250" as="targetPoint" />
          </mxGeometry>
        </mxCell>
        <mxCell id="jkhjfqm331X6zdXHp7C5-28" value="Process with LIWC-22 English&lt;div&gt;&lt;br&gt;&lt;/div&gt;" style="edgeLabel;html=1;align=center;verticalAlign=middle;resizable=0;points=[];" parent="jkhjfqm331X6zdXHp7C5-26" vertex="1" connectable="0">
          <mxGeometry x="-0.2807" y="4" relative="1" as="geometry">
            <mxPoint x="13" y="-15" as="offset" />
          </mxGeometry>
        </mxCell>
        <mxCell id="jkhjfqm331X6zdXHp7C5-27" value="Process with LIWC-2015 Romanian&lt;div&gt;&lt;br&gt;&lt;/div&gt;" style="endArrow=classic;html=1;rounded=0;exitX=1;exitY=0.5;exitDx=0;exitDy=0;exitPerimeter=0;entryX=0.333;entryY=1.15;entryDx=0;entryDy=0;entryPerimeter=0;" parent="1" source="jkhjfqm331X6zdXHp7C5-19" target="jkhjfqm331X6zdXHp7C5-23" edge="1">
          <mxGeometry x="0.0472" y="20" width="50" height="50" relative="1" as="geometry">
            <mxPoint x="570" y="300" as="sourcePoint" />
            <mxPoint x="620" y="250" as="targetPoint" />
            <mxPoint as="offset" />
          </mxGeometry>
        </mxCell>
        <mxCell id="jkhjfqm331X6zdXHp7C5-34" value="Feature Vectors" style="whiteSpace=wrap;html=1;" parent="1" vertex="1">
          <mxGeometry x="364" y="130" width="100" height="20" as="geometry" />
        </mxCell>
        <mxCell id="jkhjfqm331X6zdXHp7C5-35" value="Feature Vectors" style="whiteSpace=wrap;html=1;" parent="1" vertex="1">
          <mxGeometry x="364" y="360" width="100" height="20" as="geometry" />
        </mxCell>
        <mxCell id="jkhjfqm331X6zdXHp7C5-36" value="Training And Evaluating Random Forest English Classifier" style="rounded=1;whiteSpace=wrap;html=1;" parent="1" vertex="1">
          <mxGeometry x="590" y="140" width="120" height="60" as="geometry" />
        </mxCell>
        <mxCell id="jkhjfqm331X6zdXHp7C5-37" value="" style="endArrow=classic;html=1;rounded=0;exitX=0.917;exitY=-0.05;exitDx=0;exitDy=0;entryX=0;entryY=0.5;entryDx=0;entryDy=0;exitPerimeter=0;" parent="1" source="jkhjfqm331X6zdXHp7C5-22" target="jkhjfqm331X6zdXHp7C5-36" edge="1">
          <mxGeometry width="50" height="50" relative="1" as="geometry">
            <mxPoint x="570" y="300" as="sourcePoint" />
            <mxPoint x="620" y="250" as="targetPoint" />
          </mxGeometry>
        </mxCell>
        <mxCell id="jkhjfqm331X6zdXHp7C5-38" value="Training And Evaluating Random Forest Romanian Classifier" style="rounded=1;whiteSpace=wrap;html=1;" parent="1" vertex="1">
          <mxGeometry x="580" y="320" width="120" height="60" as="geometry" />
        </mxCell>
        <mxCell id="jkhjfqm331X6zdXHp7C5-39" value="" style="endArrow=classic;html=1;rounded=0;exitX=0.667;exitY=0.2;exitDx=0;exitDy=0;exitPerimeter=0;entryX=0;entryY=0.5;entryDx=0;entryDy=0;" parent="1" source="jkhjfqm331X6zdXHp7C5-25" target="jkhjfqm331X6zdXHp7C5-38" edge="1">
          <mxGeometry width="50" height="50" relative="1" as="geometry">
            <mxPoint x="570" y="300" as="sourcePoint" />
            <mxPoint x="620" y="250" as="targetPoint" />
          </mxGeometry>
        </mxCell>
        <mxCell id="jkhjfqm331X6zdXHp7C5-40" value="Use Classifier in Depression Detection Tool" style="rounded=1;whiteSpace=wrap;html=1;" parent="1" vertex="1">
          <mxGeometry x="860" y="240" width="120" height="60" as="geometry" />
        </mxCell>
        <mxCell id="jkhjfqm331X6zdXHp7C5-41" value="" style="endArrow=classic;html=1;rounded=0;exitX=1;exitY=0.5;exitDx=0;exitDy=0;entryX=0;entryY=0.25;entryDx=0;entryDy=0;" parent="1" source="jkhjfqm331X6zdXHp7C5-36" target="jkhjfqm331X6zdXHp7C5-40" edge="1">
          <mxGeometry width="50" height="50" relative="1" as="geometry">
            <mxPoint x="570" y="300" as="sourcePoint" />
            <mxPoint x="620" y="250" as="targetPoint" />
          </mxGeometry>
        </mxCell>
        <mxCell id="jkhjfqm331X6zdXHp7C5-45" value="Save Classifier with pickle" style="edgeLabel;html=1;align=center;verticalAlign=middle;resizable=0;points=[];" parent="jkhjfqm331X6zdXHp7C5-41" vertex="1" connectable="0">
          <mxGeometry x="-0.1798" y="1" relative="1" as="geometry">
            <mxPoint as="offset" />
          </mxGeometry>
        </mxCell>
        <mxCell id="jkhjfqm331X6zdXHp7C5-42" value="" style="endArrow=classic;html=1;rounded=0;exitX=1;exitY=0.5;exitDx=0;exitDy=0;entryX=0;entryY=0.75;entryDx=0;entryDy=0;" parent="1" source="jkhjfqm331X6zdXHp7C5-38" target="jkhjfqm331X6zdXHp7C5-40" edge="1">
          <mxGeometry width="50" height="50" relative="1" as="geometry">
            <mxPoint x="570" y="300" as="sourcePoint" />
            <mxPoint x="620" y="250" as="targetPoint" />
          </mxGeometry>
        </mxCell>
        <mxCell id="jkhjfqm331X6zdXHp7C5-46" value="Save Classifier with pickle" style="edgeLabel;html=1;align=center;verticalAlign=middle;resizable=0;points=[];" parent="jkhjfqm331X6zdXHp7C5-42" vertex="1" connectable="0">
          <mxGeometry x="-0.0367" y="-2" relative="1" as="geometry">
            <mxPoint as="offset" />
          </mxGeometry>
        </mxCell>
      </root>
    </mxGraphModel>
  </diagram>
</mxfile>
